# xmcd
#
# Track frame offsets: 
#        150
#        22918
#        37773
#        60758
#        81278
#        104988
#        131153
#        151120
#        170590
#        186678
#
# Disc length: 2790 seconds
#
# Revision: 0
# Processed by: cddbd v1.5.2PL0 Copyright (c) Steve Scherf et al.
# Submitted via: ExactAudioCopy v1.0b3
#
DISCID=7e0ae40a
DTITLE=Various Artist - Ly Ruou Mung
DYEAR=1991
DGENRE=
TTITLE0=Son Ca, Thanh Phong - Ly ruou mung
TTITLE1=Huong Lan - Dau nam di le
TTITLE2=Duy Quang - Don vang chieu Xuan
TTITLE3=Giao Linh - Mua Xuan tren cao
TTITLE4=Thien Trang - Canh thiep dau Xuan
TTITLE5=Huong Lan, Duy Quang - Mua Xuan cua Me
TTITLE6=Hai Ly - Ruoc Xuan ve nha
TTITLE7=Luu Hong - Don Xuan nay nho Xuan xua
TTITLE8=Nhu Mai - Gio mua Xuan toi
TTITLE9=Khanh Dung - Phut giao mua
EXTD=
EXTT0=
EXTT1=
EXTT2=
EXTT3=
EXTT4=
EXTT5=
EXTT6=
EXTT7=
EXTT8=
EXTT9=
PLAYORDER=
